<?xml version="1.0" standalone="no"?><!DOCTYPE svg PUBLIC "-//W3C//DTD SVG 1.1//EN" "http://www.w3.org/Graphics/SVG/1.1/DTD/svg11.dtd"><svg t="1718413275498" class="icon" viewBox="0 0 1024 1024" version="1.1" xmlns="http://www.w3.org/2000/svg" p-id="2567" width="256" height="256" xmlns:xlink="http://www.w3.org/1999/xlink"><path d="M518.255104 1024h-0.4096c-49.0496 0-99.6864-6.8096-150.528-20.224a598.016 598.016 0 0 1-116.8384-43.8272 481.792 481.792 0 0 1-152.3712-120.576A427.6224 427.6224 0 0 1 11.835904 671.232a391.1168 391.1168 0 0 1-5.9904-162.6624c9.6256-55.6032 31.1296-109.6704 63.8976-160.768l1.3312-5.3248C110.395904 184.4736 151.048704 21.0944 253.704704 1.2288L254.984704 1.024l1.2288-0.1536C261.999104 0.3072 267.835904 0 273.723904 0c99.7376 0 169.984 85.9136 194.4576 120.9856h81.408l2.048-2.56c27.648-35.2256 92.4672-117.6576 183.296-117.6576h1.536c107.3152 0 171.52 195.1232 210.5344 341.9136l3.584 13.5168c64.1536 99.584 86.4256 199.3728 66.2016 296.704-35.1232 168.8576-185.9584 268.4928-200.8576 278.016-12.4928 8.96-126.7712 87.8592-297.2672 93.0816h-0.4096zM288.571904 110.9504c-58.9824 12.8-93.8496 152.0128-121.856 263.936l-3.584 14.08-2.6112 3.9424c-51.712 78.2336-67.9936 163.6352-47.0016 246.9376 11.4176 45.4656 34.304 89.6 66.1504 127.6928a379.2384 379.2384 0 0 0 120.1152 94.208c24.064 12.1344 110.6944 51.6096 217.088 51.712 142.336-4.4544 237.9776-73.0624 238.9504-73.728l0.8192-0.6144 0.8704-0.512c1.28-0.8192 129.3312-81.664 156.672-213.1456 15.0016-72.2432-3.0208-147.7632-53.6064-224.512l-1.8944-2.816-1.1264-3.2768a322.048 322.048 0 0 1-5.3248-18.944c-8.8576-32.9216-27.136-101.5808-54.1184-162.6112-28.672-64.8704-59.4944-102.0928-84.6848-102.0928h-1.3312c-57.088 0-104.2944 59.648-124.416 85.0944-9.216 11.6224-13.4656 16.896-21.1968 20.1728l-4.608 1.8944h-117.248l-7.68-12.9024c-0.512-0.9216-57.856-94.9248-138.8032-94.9248-3.1744 0-6.4 0.1536-9.5744 0.4096z" fill="#151515" p-id="2568"></path></svg>